<?xml version="1.0" encoding="iso-8859-1"?>
<!-- Generator: Adobe Illustrator 19.0.0, SVG Export Plug-In . SVG Version: 6.00 Build 0)  -->
<svg version="1.1" id="Layer_1" xmlns="http://www.w3.org/2000/svg" xmlns:xlink="http://www.w3.org/1999/xlink" x="0px" y="0px"
	 viewBox="0 0 512 512" style="enable-background:new 0 0 512 512;" xml:space="preserve">
<g>
	<g>
		<path d="M512,370.821V216.03h-59.535V113.026l50.864-30.519l-18.38-30.631l-119.07,71.442l18.38,30.631l32.485-19.49v81.571
			h-27.113c-24.27-49.322-75.048-83.349-133.631-83.349s-109.361,34.027-133.631,83.349H95.256v-81.571l32.485,19.491l18.38-30.631
			L27.05,51.877L8.671,82.508l50.864,30.519V216.03H0v154.791h59.535v53.581H29.767v35.721h95.256v-35.721H95.256v-53.581h41.749
			c12.134,16.129,27.465,29.723,45.045,39.83l-28.27,49.472h41.141l20.262-35.458c12.975,3.705,26.668,5.69,40.816,5.69
			s27.841-1.986,40.816-5.69l20.262,35.458h41.141l-28.27-49.472c17.581-10.107,32.911-23.701,45.045-39.83h41.749v53.581h-29.767
			v35.721h95.256v-35.721h-29.767v-53.581H512z M35.721,335.1v-83.349h74.434c-1.961,9.621-2.992,19.576-2.992,29.767
			c0,18.881,3.542,36.947,9.983,53.581H35.721z M256,394.635c-62.372,0-113.116-50.744-113.116-113.116S193.628,168.402,256,168.402
			s113.116,50.744,113.116,113.116S318.372,394.635,256,394.635z M394.854,335.1c6.44-16.634,9.983-34.701,9.983-53.581
			c0-10.191-1.032-20.147-2.992-29.767h74.434V335.1H394.854z"/>
	</g>
</g>
<g>
	<g>
		<path d="M166.698,281.518h35.721c0-29.545,24.035-53.581,53.581-53.581v-35.721C206.759,192.216,166.698,232.277,166.698,281.518z
			"/>
	</g>
</g>
<g>
</g>
<g>
</g>
<g>
</g>
<g>
</g>
<g>
</g>
<g>
</g>
<g>
</g>
<g>
</g>
<g>
</g>
<g>
</g>
<g>
</g>
<g>
</g>
<g>
</g>
<g>
</g>
<g>
</g>
</svg>
