<?xml version="1.0" encoding="iso-8859-1"?>
<!-- Generator: Adobe Illustrator 19.0.0, SVG Export Plug-In . SVG Version: 6.00 Build 0)  -->
<svg version="1.1" id="Layer_1" xmlns="http://www.w3.org/2000/svg" xmlns:xlink="http://www.w3.org/1999/xlink" x="0px" y="0px"
	 viewBox="0 0 512 512" style="enable-background:new 0 0 512 512;" xml:space="preserve">
<g>
	<g>
		<path d="M356.994,360.804c-7.512-9.527-10.981-23.462-9.767-39.24c1.501-19.531,5.671-61.946,5.713-62.373l0.063-0.849
			c0.465-9.528-4.028-18.327-12.018-23.538c-7.99-5.212-17.854-5.777-26.387-1.511l-1.19,0.595l-40.15,28.504V92.045l11.506-17.258
			V42.919c6.871-3.981,11.506-11.395,11.506-19.908C296.27,10.302,285.968,0,273.258,0c-8.312,0-15.595,4.407-19.639,11.012
			c-2.139,3.493-26.384,58.022-26.384,58.022l11.506,23.011v165.952l-41.148-39.956l-1.661-1.01
			c-9.36-5.691-20.915-5.57-30.155,0.316c-9.239,5.886-14.231,16.307-13.039,27.093c0.245,2.353,6.052,57.896,9.083,81.703
			c2.118,16.654,2.088,24.586-6.893,36.151c-12.323,15.864-25.49,41.761-25.49,66.865c0,46.453,55.593,82.84,126.562,82.84
			s126.562-36.388,126.562-82.84C382.562,407.332,372.527,380.5,356.994,360.804z M256,477.483
			c-54.243,0-92.045-25.468-92.045-48.324c0-13.29,7.327-31.652,18.232-45.692c13.955-17.966,17.455-33.531,13.875-61.68
			c-1.959-15.393-5.202-45.265-7.214-64.127l48.646,47.239h35.516l43.843-31.126c-1.35,14.166-3.139,33.405-4.041,45.143
			c-1.88,24.443,4.186,46.908,17.079,63.26c10.689,13.556,18.155,32.876,18.155,46.983C348.045,457.637,299.536,477.483,256,477.483
			z"/>
	</g>
</g>
<g>
	<g>
		<rect x="227.236" y="396.944" width="57.528" height="34.517"/>
	</g>
</g>
<g>
	<g>
		<rect x="227.236" y="339.416" width="57.528" height="34.517"/>
	</g>
</g>
<g>
</g>
<g>
</g>
<g>
</g>
<g>
</g>
<g>
</g>
<g>
</g>
<g>
</g>
<g>
</g>
<g>
</g>
<g>
</g>
<g>
</g>
<g>
</g>
<g>
</g>
<g>
</g>
<g>
</g>
</svg>
