<?xml version="1.0" encoding="iso-8859-1"?>
<!-- Uploaded to: SVG Repo, www.svgrepo.com, Generator: SVG Repo Mixer Tools -->
<!DOCTYPE svg PUBLIC "-//W3C//DTD SVG 1.1//EN" "http://www.w3.org/Graphics/SVG/1.1/DTD/svg11.dtd">
<svg fill="#000000" height="800px" width="800px" version="1.1" id="Capa_1" xmlns="http://www.w3.org/2000/svg" xmlns:xlink="http://www.w3.org/1999/xlink" 
	 viewBox="0 0 60.493 60.493" xml:space="preserve">
<path id="XMLID_187_" d="M60.23,30.64l-0.533-1.305c-0.004-0.011-0.012-0.02-0.016-0.031c-0.023-0.053-0.052-0.102-0.08-0.151
	c-0.021-0.037-0.041-0.075-0.065-0.11c-0.031-0.045-0.068-0.085-0.104-0.126c-0.029-0.033-0.055-0.067-0.087-0.097
	c-0.037-0.036-0.079-0.066-0.12-0.098c-0.035-0.027-0.069-0.057-0.107-0.081c-0.043-0.028-0.089-0.049-0.135-0.072
	c-0.04-0.02-0.079-0.042-0.12-0.059c-0.047-0.019-0.095-0.031-0.144-0.045c-0.045-0.013-0.088-0.027-0.134-0.036
	c-0.046-0.009-0.093-0.011-0.14-0.015c-0.051-0.005-0.102-0.011-0.154-0.01c-0.044,0-0.088,0.007-0.132,0.011
	c-0.055,0.005-0.11,0.01-0.166,0.022c-0.012,0.003-0.023,0.002-0.035,0.005l-2.112,0.504l-0.821-2.011
	c-0.004-0.011-0.011-0.02-0.016-0.03c-0.023-0.053-0.052-0.102-0.08-0.152c-0.021-0.037-0.041-0.075-0.065-0.11
	c-0.031-0.045-0.067-0.085-0.103-0.125c-0.029-0.033-0.056-0.067-0.087-0.097c-0.038-0.036-0.08-0.067-0.122-0.1
	c-0.034-0.027-0.067-0.055-0.104-0.079c-0.045-0.029-0.093-0.052-0.141-0.076c-0.038-0.019-0.074-0.04-0.113-0.055
	c-0.049-0.02-0.101-0.033-0.153-0.048c-0.042-0.012-0.082-0.026-0.125-0.034c-0.049-0.009-0.099-0.012-0.149-0.016
	c-0.048-0.004-0.096-0.01-0.145-0.01c-0.045,0-0.09,0.007-0.136,0.012c-0.055,0.005-0.109,0.01-0.163,0.022
	c-0.012,0.003-0.023,0.002-0.035,0.005l-2.112,0.504l-0.821-2.011c-0.005-0.011-0.012-0.021-0.017-0.032
	c-0.022-0.049-0.048-0.095-0.075-0.141c-0.023-0.041-0.045-0.083-0.072-0.121c-0.028-0.04-0.061-0.075-0.092-0.112
	c-0.032-0.038-0.063-0.076-0.099-0.11c-0.033-0.032-0.07-0.059-0.107-0.087c-0.039-0.031-0.077-0.063-0.119-0.09
	c-0.041-0.026-0.084-0.046-0.127-0.068c-0.042-0.021-0.083-0.045-0.127-0.062c-0.047-0.019-0.096-0.031-0.145-0.045
	c-0.043-0.012-0.086-0.027-0.13-0.035c-0.049-0.009-0.1-0.012-0.151-0.017c-0.047-0.004-0.094-0.01-0.141-0.01
	c-0.048,0-0.095,0.007-0.143,0.012c-0.052,0.005-0.103,0.01-0.155,0.021c-0.012,0.003-0.024,0.002-0.036,0.005l-2.113,0.503
	l-0.821-2.01c-0.005-0.011-0.012-0.021-0.017-0.032c-0.022-0.05-0.049-0.096-0.076-0.143c-0.023-0.04-0.044-0.081-0.07-0.119
	c-0.029-0.042-0.063-0.079-0.096-0.117c-0.031-0.036-0.06-0.073-0.094-0.105c-0.036-0.035-0.077-0.064-0.116-0.095
	c-0.036-0.028-0.07-0.057-0.108-0.082c-0.046-0.029-0.094-0.052-0.143-0.077c-0.037-0.018-0.072-0.039-0.11-0.054
	c-0.054-0.022-0.109-0.036-0.165-0.051c-0.037-0.01-0.072-0.022-0.11-0.03c-0.055-0.011-0.112-0.014-0.168-0.019
	c-0.042-0.003-0.083-0.009-0.125-0.008c-0.05,0-0.1,0.008-0.151,0.013c-0.05,0.005-0.1,0.01-0.151,0.02
	c-0.012,0.003-0.024,0.002-0.036,0.005l-2.113,0.503l-0.821-2.01c-0.005-0.011-0.012-0.021-0.017-0.032
	c-0.022-0.049-0.048-0.095-0.075-0.141c-0.024-0.041-0.045-0.083-0.072-0.122c-0.027-0.039-0.059-0.073-0.09-0.109
	c-0.033-0.039-0.065-0.079-0.102-0.113c-0.032-0.03-0.067-0.055-0.101-0.083c-0.041-0.033-0.081-0.067-0.126-0.095
	c-0.037-0.024-0.077-0.042-0.117-0.063c-0.046-0.024-0.09-0.048-0.138-0.067c-0.043-0.017-0.088-0.028-0.132-0.041
	c-0.048-0.014-0.095-0.03-0.144-0.039c-0.045-0.009-0.092-0.011-0.138-0.015c-0.051-0.005-0.102-0.011-0.153-0.01
	c-0.045,0-0.09,0.007-0.135,0.012c-0.054,0.005-0.108,0.01-0.162,0.022c-0.012,0.003-0.023,0.002-0.035,0.005l-0.686,0.163
	c3.353-3.355,8.435-4.725,13.226-3.087C58.004,18.038,61.515,24.404,60.23,30.64z M58.226,33.67l-0.821-2.011l-2.112,0.504
	c-0.117,0.028-0.233,0.041-0.349,0.041c-0.598,0-1.154-0.359-1.388-0.933l-0.821-2.011l-2.112,0.504
	c-0.117,0.028-0.233,0.041-0.349,0.041c-0.598,0-1.154-0.359-1.388-0.933l-0.821-2.011l-2.113,0.504
	c-0.116,0.028-0.233,0.041-0.348,0.041c-0.598,0-1.154-0.359-1.388-0.933l-0.821-2.01l-2.113,0.504
	c-0.116,0.028-0.233,0.041-0.348,0.041c-0.598,0-1.154-0.359-1.388-0.933l-0.821-2.01l-2.113,0.504
	c-0.116,0.028-0.233,0.041-0.348,0.041c-0.065,0-0.126-0.02-0.19-0.028c-0.203,0.431-0.389,0.873-0.547,1.334
	c-1.958,5.726,0.374,11.871,5.27,14.975l-4.524,13.233c-0.536,1.568,0.3,3.273,1.868,3.81c0.322,0.11,0.649,0.162,0.971,0.162
	c1.248,0,2.413-0.784,2.839-2.03l4.525-13.233c5.002,0.471,9.875-2.047,12.362-6.453C58.572,34.215,58.351,33.976,58.226,33.67z
	 M2.163,21.156c0.028-0.045,0.062-0.085,0.094-0.127c0.029-0.037,0.057-0.076,0.09-0.11c0.034-0.035,0.072-0.066,0.109-0.097
	c0.038-0.032,0.074-0.066,0.114-0.094c0.038-0.026,0.078-0.047,0.118-0.07c0.044-0.025,0.087-0.051,0.133-0.072
	c0.042-0.019,0.086-0.031,0.129-0.046c0.047-0.016,0.094-0.033,0.142-0.045c0.045-0.01,0.09-0.014,0.136-0.021
	c0.05-0.007,0.1-0.015,0.15-0.017c0.043-0.001,0.087,0.003,0.131,0.006c0.055,0.003,0.109,0.005,0.163,0.014
	c0.04,0.007,0.08,0.019,0.12,0.029c0.057,0.014,0.113,0.028,0.169,0.049c0.011,0.004,0.021,0.005,0.032,0.009l2.012,0.817
	l1.115-1.864c0.007-0.011,0.016-0.019,0.022-0.03c0.029-0.046,0.062-0.086,0.095-0.128c0.029-0.036,0.056-0.074,0.088-0.107
	c0.036-0.037,0.075-0.069,0.115-0.103c0.035-0.03,0.069-0.062,0.107-0.088c0.041-0.029,0.085-0.051,0.128-0.076
	c0.04-0.023,0.08-0.047,0.122-0.066c0.046-0.021,0.094-0.035,0.141-0.05c0.043-0.014,0.086-0.03,0.13-0.041
	c0.049-0.011,0.098-0.016,0.148-0.023c0.046-0.006,0.092-0.014,0.139-0.016c0.046-0.002,0.093,0.003,0.14,0.006
	c0.052,0.003,0.103,0.005,0.154,0.013c0.042,0.007,0.083,0.02,0.125,0.03c0.056,0.014,0.111,0.028,0.165,0.049
	c0.011,0.004,0.022,0.005,0.032,0.009l2.012,0.817l1.115-1.863c0.006-0.011,0.015-0.019,0.022-0.029
	c0.03-0.047,0.064-0.089,0.099-0.132c0.028-0.035,0.054-0.071,0.084-0.103c0.038-0.04,0.08-0.073,0.121-0.108
	c0.033-0.028,0.064-0.057,0.099-0.082c0.045-0.032,0.093-0.057,0.141-0.083c0.036-0.02,0.071-0.042,0.109-0.059
	c0.051-0.023,0.105-0.039,0.159-0.056c0.037-0.012,0.074-0.026,0.112-0.035c0.055-0.013,0.111-0.019,0.167-0.025
	c0.04-0.005,0.08-0.012,0.12-0.013c0.052-0.002,0.103,0.003,0.155,0.007c0.047,0.003,0.093,0.005,0.14,0.012
	c0.044,0.007,0.088,0.021,0.132,0.032c0.054,0.014,0.107,0.027,0.16,0.047c0.011,0.004,0.022,0.005,0.032,0.009l2.012,0.817
	l1.115-1.863c0.006-0.01,0.015-0.018,0.021-0.029c0.03-0.048,0.065-0.09,0.1-0.134c0.027-0.034,0.053-0.07,0.083-0.102
	c0.037-0.039,0.079-0.073,0.12-0.107c0.034-0.029,0.066-0.059,0.102-0.084c0.042-0.03,0.088-0.054,0.133-0.079
	c0.039-0.022,0.076-0.045,0.117-0.063c0.047-0.021,0.096-0.035,0.144-0.051c0.043-0.014,0.084-0.03,0.128-0.04
	c0.048-0.011,0.097-0.016,0.146-0.022c0.047-0.006,0.094-0.014,0.142-0.016c0.045-0.002,0.09,0.003,0.135,0.006
	c0.053,0.003,0.107,0.005,0.16,0.014c0.04,0.007,0.08,0.019,0.12,0.029c0.057,0.014,0.113,0.028,0.169,0.05
	c0.01,0.004,0.021,0.005,0.032,0.009l2.012,0.817l1.115-1.863c0.006-0.01,0.015-0.018,0.021-0.029
	c0.03-0.047,0.064-0.089,0.099-0.132c0.028-0.035,0.054-0.072,0.085-0.104c0.036-0.038,0.077-0.071,0.117-0.104
	c0.035-0.029,0.068-0.06,0.105-0.086c0.042-0.03,0.088-0.053,0.132-0.078c0.039-0.022,0.076-0.045,0.117-0.063
	c0.049-0.022,0.101-0.037,0.152-0.054c0.039-0.013,0.078-0.028,0.118-0.037c0.054-0.013,0.108-0.018,0.163-0.025
	c0.041-0.005,0.082-0.012,0.123-0.014c0.051-0.002,0.103,0.003,0.155,0.007c0.047,0.003,0.093,0.004,0.14,0.012
	c0.046,0.008,0.091,0.021,0.137,0.033c0.052,0.013,0.103,0.026,0.154,0.045c0.011,0.004,0.023,0.005,0.034,0.01l2.012,0.817
	l1.115-1.863c0.006-0.011,0.015-0.019,0.022-0.029c0.029-0.047,0.063-0.088,0.097-0.13c0.028-0.036,0.055-0.073,0.086-0.105
	c0.036-0.037,0.075-0.069,0.114-0.102c0.036-0.03,0.07-0.062,0.108-0.089c0.039-0.028,0.082-0.049,0.124-0.073
	c0.042-0.024,0.083-0.049,0.128-0.069c0.043-0.019,0.088-0.032,0.133-0.047c0.029-0.01,0.059-0.019,0.089-0.028
	c-3.168-5.84-9.979-9.034-16.714-7.327C3.299,6.866-1.507,14.883,0.428,22.806l0.597,0.243l1.115-1.863
	C2.147,21.174,2.156,21.166,2.163,21.156z M28.949,15.503l-1.115,1.863c-0.278,0.464-0.773,0.729-1.288,0.729
	c-0.189,0-0.38-0.036-0.564-0.11l-2.012-0.817l-1.115,1.863c-0.278,0.465-0.773,0.73-1.288,0.73c-0.189,0-0.38-0.036-0.564-0.11
	l-2.012-0.817l-1.115,1.863c-0.278,0.464-0.773,0.729-1.288,0.729c-0.189,0-0.38-0.036-0.564-0.11l-2.012-0.817l-1.115,1.863
	c-0.278,0.464-0.773,0.729-1.288,0.729c-0.189,0-0.38-0.036-0.564-0.11l-2.012-0.817l-1.116,1.864
	c-0.278,0.464-0.773,0.729-1.288,0.729c-0.189,0-0.38-0.036-0.564-0.11l-2.012-0.817l-1.115,1.863
	c-0.248,0.414-0.67,0.657-1.122,0.708c2.703,4.964,8.045,8.007,13.729,7.744l3.952,15.598c0.344,1.359,1.565,2.264,2.906,2.264
	c0.244,0,0.492-0.03,0.739-0.092c1.606-0.407,2.578-2.039,2.171-3.645l-3.952-15.598c6.224-3.007,9.692-10.063,7.938-17.025
	L28.949,15.503z"/>
</svg>